<svg preserveAspectRatio="none" width="100%" height="100%" overflow="visible" style="display: block;" viewBox="0 0 300 300" fill="none" xmlns="http://www.w3.org/2000/svg">
<g id="svg1271193429_297" clip-path="url(#clip0_0_9)">
<path id="Vector" d="M0.817276 0.342857C0.818234 29.9111 9.58692 58.815 26.0145 83.3998C42.4421 107.985 65.7909 127.146 93.1084 138.461C120.426 149.777 150.485 152.737 179.485 146.969C208.485 141.201 235.124 126.964 256.033 106.056C284.069 78.0193 299.82 39.9931 299.821 0.342857H0.817276Z" fill="var(--fill-0, #3861F9)"/>
<path id="Vector_2" d="M0.817276 149.845C0.817804 189.495 16.569 227.521 44.6059 255.558C72.6428 283.594 110.669 299.346 150.319 299.346C189.969 299.345 227.995 283.594 256.031 255.557C284.068 227.52 299.82 189.494 299.821 149.845H0.817276Z" fill="var(--fill-0, #FFD37D)"/>
</g>
<defs>
<clipPath id="clip0_0_9">
<rect width="300" height="300" fill="white"/>
</clipPath>
</defs>
</svg>
